<svg xmlns="http://www.w3.org/2000/svg" width="133" height="121" viewBox="0 0 133 121">
  <g id="グループ_5" data-name="グループ 5" transform="translate(-74 -610)">
    <rect id="長方形_7" data-name="長方形 7" width="133" height="121" transform="translate(74 610)" fill="#fff"/>
    <g id="グループ_3" data-name="グループ 3" transform="translate(-9 -8)">
      <g id="楕円形_6" data-name="楕円形 6" transform="translate(111 625)" fill="#fff" stroke="#707070" stroke-width="5">
        <circle cx="48.5" cy="48.5" r="48.5" stroke="none"/>
        <circle cx="48.5" cy="48.5" r="46" fill="none"/>
      </g>
      <line id="線_12" data-name="線 12" y2="36.892" transform="translate(159.421 639.603)" fill="none" stroke="#707070" stroke-linecap="round" stroke-width="5"/>
      <line id="線_13" data-name="線 13" x1="16.909" y1="15.372" transform="translate(159.421 676.496)" fill="none" stroke="#707070" stroke-linecap="round" stroke-width="5"/>
      <g id="長方形_4" data-name="長方形 4" transform="translate(95 670)" fill="#fff" stroke="#707070" stroke-linejoin="round" stroke-width="5">
        <rect width="58" height="63" rx="10" stroke="none"/>
        <rect x="2.5" y="2.5" width="53" height="58" rx="7.5" fill="none"/>
      </g>
      <line id="線_14" data-name="線 14" x2="1.28" transform="translate(106.197 690.453)" fill="none" stroke="#707070" stroke-linecap="round" stroke-width="4"/>
      <line id="線_15" data-name="線 15" x2="26.232" transform="translate(114.514 690.453)" fill="none" stroke="#707070" stroke-linecap="round" stroke-width="4"/>
      <line id="線_16" data-name="線 16" x2="1.28" transform="translate(106.197 701.969)" fill="none" stroke="#707070" stroke-linecap="round" stroke-width="4"/>
      <line id="線_17" data-name="線 17" x2="26.232" transform="translate(114.514 701.969)" fill="none" stroke="#707070" stroke-linecap="round" stroke-width="4"/>
      <line id="線_18" data-name="線 18" x2="1.28" transform="translate(106.197 713.486)" fill="none" stroke="#707070" stroke-linecap="round" stroke-width="4"/>
      <line id="線_19" data-name="線 19" x2="26.232" transform="translate(114.514 713.486)" fill="none" stroke="#707070" stroke-linecap="round" stroke-width="4"/>
      <rect id="長方形_5" data-name="長方形 5" width="11" height="13" transform="translate(109 662)" fill="#fff"/>
      <rect id="長方形_6" data-name="長方形 6" width="11" height="7" transform="translate(129 669)" fill="#fff"/>
      <line id="線_21" data-name="線 21" y2="12.156" transform="translate(135.547 665.5)" fill="none" stroke="#707070" stroke-linecap="round" stroke-width="5"/>
      <ellipse id="楕円形_7" data-name="楕円形 7" cx="5.5" cy="6" rx="5.5" ry="6" transform="translate(109 660)" fill="#fff"/>
      <line id="線_20" data-name="線 20" y2="12.156" transform="translate(114.514 665.5)" fill="none" stroke="#707070" stroke-linecap="round" stroke-width="5"/>
    </g>
  </g>
</svg>
