<svg xmlns="http://www.w3.org/2000/svg" width="294" height="294" viewBox="0 0 294 294">
  <g id="グループ_2" data-name="グループ 2" transform="translate(-29 -273)">
    <circle id="楕円形_1" data-name="楕円形 1" cx="147" cy="147" r="147" transform="translate(29 273)" fill="#bfbfbf"/>
    <g id="グループ_1" data-name="グループ 1">
      <path id="パス_1" data-name="パス 1" d="M205.618,321.5l27.443-27.443L298.394,361.3,271.03,387.095Z" fill="#fff"/>
      <path id="パス_2" data-name="パス 2" d="M200.325,336.543l56.214,56.844S211.75,444.738,195.97,488.2c-49.945,1.027-100.077,21.241-100.077,21.241s.471,13.312-13.221,7.119c14.027-15.1,46.364-43.223,69.33-67.519,11.4,8.3,41.327-9.495,22.532-29.668s-36.484,10.93-29.28,20.612c-24.295,23.127-52.436,55.52-67.9,71.9-7.286-14.169,7.3-13.491,7.3-13.491s21.925-68.066,19.827-100.261C154.609,381.42,200.325,336.543,200.325,336.543Z" fill="#fff"/>
    </g>
  </g>
</svg>
